<svg width="38" height="23" viewBox="0 0 38 23" fill="none" xmlns="http://www.w3.org/2000/svg">
<path d="M19.1836 1.74219L13.5117 6.33594C12.5684 7.09766 12.3867 8.46875 13.1016 9.44727C13.8574 10.4902 15.3281 10.6953 16.3418 9.9043L22.1602 5.38086C22.5703 5.06445 23.1562 5.13477 23.4785 5.54492C23.8008 5.95508 23.7246 6.54102 23.3145 6.86328L22.0898 7.8125L30.2344 15.3125V4.25H30.1934L29.9648 4.10352L25.7109 1.37891C24.8145 0.804688 23.7656 0.5 22.6992 0.5C21.4219 0.5 20.1797 0.939453 19.1836 1.74219ZM20.5195 9.03125L17.4902 11.3867C15.6445 12.8281 12.9668 12.4531 11.584 10.5547C10.2832 8.76758 10.6113 6.27148 12.3281 4.88281L17.2031 0.939453C16.5234 0.652344 15.791 0.505859 15.0469 0.505859C13.9453 0.5 12.873 0.828125 11.9531 1.4375L7.73438 4.25V17.375H9.38672L14.7422 22.2617C15.8906 23.3105 17.666 23.2285 18.7148 22.0801C19.0371 21.7227 19.2539 21.3066 19.3652 20.873L20.3613 21.7871C21.5039 22.8359 23.2852 22.7598 24.334 21.6172C24.5977 21.3301 24.791 20.9961 24.9141 20.6504C26.0508 21.4121 27.5977 21.2539 28.5527 20.2109C29.6016 19.0684 29.5254 17.2871 28.3828 16.2383L20.5195 9.03125ZM1.17188 4.25C0.65625 4.25 0.234375 4.67188 0.234375 5.1875V17.375C0.234375 18.4121 1.07227 19.25 2.10938 19.25H3.98438C5.02148 19.25 5.85938 18.4121 5.85938 17.375V4.25H1.17188ZM3.04688 15.5C3.29552 15.5 3.53397 15.5988 3.70979 15.7746C3.8856 15.9504 3.98438 16.1889 3.98438 16.4375C3.98438 16.6861 3.8856 16.9246 3.70979 17.1004C3.53397 17.2762 3.29552 17.375 3.04688 17.375C2.79823 17.375 2.55978 17.2762 2.38396 17.1004C2.20815 16.9246 2.10938 16.6861 2.10938 16.4375C2.10938 16.1889 2.20815 15.9504 2.38396 15.7746C2.55978 15.5988 2.79823 15.5 3.04688 15.5ZM32.1094 4.25V17.375C32.1094 18.4121 32.9473 19.25 33.9844 19.25H35.8594C36.8965 19.25 37.7344 18.4121 37.7344 17.375V5.1875C37.7344 4.67188 37.3125 4.25 36.7969 4.25H32.1094ZM33.9844 16.4375C33.9844 16.1889 34.0831 15.9504 34.259 15.7746C34.4348 15.5988 34.6732 15.5 34.9219 15.5C35.1705 15.5 35.409 15.5988 35.5848 15.7746C35.7606 15.9504 35.8594 16.1889 35.8594 16.4375C35.8594 16.6861 35.7606 16.9246 35.5848 17.1004C35.409 17.2762 35.1705 17.375 34.9219 17.375C34.6732 17.375 34.4348 17.2762 34.259 17.1004C34.0831 16.9246 33.9844 16.6861 33.9844 16.4375Z" fill="white"/>
</svg>
